# xmcd CD database file
#
# Track frame offsets:
#	150
#	14103
#	34654
#	59574
#	61468
#	77944
#	101230
#	146289
#	165808
#	207083
#	235985
#
# Disc length: 3847 seconds
#
# Revision: 0
# Processed by: cddbd v1.5.2PL0 Copyright (c) Steve Scherf et al.
# Submitted via: Feurio! 1.63 - http://www.feurio.com
#
DISCID=950f050b
DTITLE=Nick Woodland - Live Fireworks
DYEAR=1996
DGENRE=blues
TTITLE0=Rock'n Roll Man
TTITLE1=Train (23 stops)
TTITLE2=Worried Life Blues
TTITLE3=Freight Train
TTITLE4=The Race Is On
TTITLE5=I Loved Another Woman
TTITLE6=Cross My Heart
TTITLE7=My Babe
TTITLE8=Got A Mind To Give Up Living
TTITLE9=Hip Shake
TTITLE10=Double Trouble
EXTD=
EXTT0=
EXTT1=
EXTT2=
EXTT3=
EXTT4=
EXTT5=
EXTT6=
EXTT7=
EXTT8=
EXTT9=
EXTT10=
PLAYORDER=
